<svg id="Layer_1" enable-background="new 0 0 512 512" height="512" viewBox="0 0 512 512" width="512" xmlns="http://www.w3.org/2000/svg"><g><path d="m437.02 74.98c-48.353-48.351-112.64-74.98-181.02-74.98s-132.668 26.629-181.02 74.98c-48.351 48.353-74.98 112.64-74.98 181.02s26.629 132.667 74.98 181.02c48.352 48.351 112.64 74.98 181.02 74.98s132.667-26.629 181.02-74.98c48.351-48.353 74.98-112.64 74.98-181.02s-26.629-132.667-74.98-181.02zm-181.02 407.02c-60.367 0-117.12-23.508-159.806-66.194s-66.194-99.439-66.194-159.806 23.508-117.12 66.194-159.806 99.439-66.194 159.806-66.194 117.12 23.508 159.806 66.194 66.194 99.439 66.194 159.806-23.508 117.12-66.194 159.806-99.439 66.194-159.806 66.194z"/><path d="m320.463 104.667h-128.926v86.87h-86.87v128.927h86.87v86.87h128.927v-86.87h86.87v-128.927h-86.87v-86.87zm56.87 185.797h-86.87v86.87h-68.927v-86.87h-86.87v-68.927h86.87v-86.87h68.927v86.87h86.87z"/></g></svg>