<svg height="458pt" viewBox="-31 0 458 458.25609" width="458pt" xmlns="http://www.w3.org/2000/svg"><path d="m96.777344 377.964844c47.117187 47.597656 93.523437 77.46875 95.472656 78.71875 3.285156 2.097656 7.492188 2.097656 10.773438 0 1.953124-1.25 48.359374-31.117188 95.476562-78.71875 27.832031-28.117188 50.050781-56.578125 66.035156-84.585938 20.3125-35.59375 30.613282-70.625 30.613282-104.117187 0-104.359375-88.601563-189.261719-197.511719-189.261719-108.910157 0-197.507813 84.902344-197.507813 189.261719 0 33.492187 10.300782 68.523437 30.613282 104.117187 15.984374 28.007813 38.203124 56.46875 66.035156 84.585938zm100.859375-357.964844c97.878906 0 177.511719 75.929688 177.511719 169.261719 0 29.917969-9.382813 61.550781-27.882813 94.023437-15.074219 26.460938-36.171875 53.488282-62.707031 80.332032-26.707032 26.796874-55.800782 51.101562-86.921875 72.609374-31.121094-21.507812-60.214844-45.8125-86.917969-72.609374-26.535156-26.847657-47.632812-53.875-62.707031-80.332032-18.5-32.472656-27.882813-64.105468-27.882813-94.023437 0-93.332031 79.628906-169.261719 177.507813-169.261719zm0 0"/><path d="m197.636719 341.101562c81 0 146.902343-65.898437 146.902343-146.898437s-65.902343-146.902344-146.902343-146.902344-146.898438 65.898438-146.898438 146.898438 65.898438 146.902343 146.898438 146.902343zm0-273.796874c70.085937 0 126.902343 56.8125 126.902343 126.898437s-56.816406 126.898437-126.902343 126.898437c-70.082031 0-126.898438-56.8125-126.898438-126.898437.078125-70.054687 56.847657-126.824219 126.898438-126.902344zm0 0"/><path d="m128.636719 217.128906h39v39c0 5.523438 4.476562 10 10 10h40c5.523437 0 10-4.476562 10-10v-39h39c5.523437 0 10-4.476562 10-10v-40c0-5.523437-4.476563-10-10-10h-39v-39c0-5.523437-4.476563-10-10-10h-40c-5.523438 0-10 4.476563-10 10v39h-39c-5.523438 0-10 4.476563-10 10v40c0 5.523438 4.476562 10 10 10zm10-40h39c5.523437 0 10-4.476562 10-10v-39h20v39c0 5.523438 4.476562 10 10 10h39v20h-39c-5.523438 0-10 4.476563-10 10v39h-20v-39c0-5.523437-4.476563-10-10-10h-39zm0 0"/></svg>