<svg id="Capa_1" enable-background="new 0 0 511.964 511.964" height="512" viewBox="0 0 511.964 511.964" width="512" xmlns="http://www.w3.org/2000/svg"><path d="m405.982 0v15.792c0 8.393-5.65 15.86-13.74 18.158-40.025 11.369-69.269 45.617-75.152 86.014h-61.108v-29.964h-90v97.938c-59.717 33.05-90 86.494-90 159.026 0 56.867 25.84 121.372 64.301 160.513l4.409 4.487h132.581l4.409-4.487c38.46-39.141 64.301-103.646 64.301-160.513 0-72.532-30.283-125.976-90-159.026v-37.974h61.108c5.883 40.397 35.127 74.645 75.152 86.014 8.09 2.298 13.74 9.765 13.74 18.158v15.828h30c0-11.164 0-258.772 0-269.964h-30.001zm-210 119.964h30v62h-30zm120 227c0 14.524-2.034 29.811-5.755 45h-198.49c-3.721-15.189-5.755-30.476-5.755-45 0-16.243 1.704-31.227 5.127-45h199.745c3.424 13.774 5.128 28.758 5.128 45zm-51.478 135h-107.043c-14.677-16.282-27.132-37.342-36.118-60h179.279c-8.987 22.659-21.441 43.719-36.118 60zm35.182-210h-177.408c12.935-25.144 33.644-45.016 62.355-60h52.697c28.712 14.985 49.421 34.856 62.356 60zm100.753-64.844c-32.063-9.107-54.457-38.779-54.457-72.156s22.394-63.048 54.457-72.156c1.902-.54 3.751-1.195 5.543-1.948v148.207c-1.792-.752-3.64-1.406-5.543-1.947z"/></svg>