<svg fill="none" height="512" viewBox="0 0 24 24" width="512" xmlns="http://www.w3.org/2000/svg"><g fill="rgb(0,0,0)"><path d="m14.5 2c0-.82843.6716-1.5 1.5-1.5h1c.8284 0 1.5.67157 1.5 1.5v2.73376c0 .17563.0921.33839.2428.42875l1.0289.61739c.4519.27109.7283.75935.7283 1.28624v3.43386c0 .2761-.2239.5-.5.5s-.5-.2239-.5-.5v-3.43386c0-.17563-.0921-.33838-.2428-.42875l-1.0289-.61739c-.4519-.27108-.7283-.75934-.7283-1.28624v-2.73376c0-.27614-.2239-.5-.5-.5h-1c-.2761 0-.5.22386-.5.5v1.49995c0 .18014-.0969.34635-.2537.4351-.1567.08875-.3491.08633-.5035-.00635l-3.4856-2.0913c-.1583-.09501-.3561-.09501-.5144-.00001l-8.00005 4.8c-.1506.09037-.24275.25312-.24275.42875v10.03386c0 .8284.67157 1.5 1.5 1.5h5.5c.27614 0 .5.2238.5.5 0 .2761-.22386.5-.5.5h-5.5c-1.38071 0-2.5-1.1193-2.5-2.5v-10.03386c0-.52689.27645-1.01515.72826-1.28624l8.00004-4.799998c.475-.285014 1.0684-.285014 1.5434 0l2.7283 1.636958z"/><path d="m18.7077 19.4749c-.2771-.1121-.5926.0217-.7047.2987-.1036.256-.3951.3796-.651.276-.256-.1035-.3796-.395-.276-.651.3192-.7891 1.2177-1.1699 2.0067-.8507.256.1036.3796.395.276.651-.1035.256-.395.3796-.651.276z"/><path clip-rule="evenodd" d="m15.7985 12.1697c.7362-.2082 1.3478.3935 1.3478 1.0585 0 .1566.127.2836.2837.2836s.2836-.127.2836-.2836c0-.665.6117-1.2667 1.3479-1.0585.4736.1339.9233.3246 1.3412.5641.6323.3625.6418 1.1806.1909 1.6315-.1108.1108-.1108.2904 0 .4012.1107.1108.2903.1108.4011 0 .4509-.451 1.2691-.4415 1.6315.1908.2396.4179.4303.8676.5642 1.3413.2081.7362-.3935 1.3478-1.0585 1.3478-.1567 0-.2837.127-.2837.2837 0 .1566.127.2836.2837.2836.665 0 1.2666.6116 1.0585 1.3478-.1339.4737-.3246.9234-.5642 1.3413-.3624.6323-1.1806.6418-1.6315.1908-.1108-.1107-.2904-.1107-.4011 0-.1108.1108-.1108.2904 0 .4012.4509.4509.4414 1.2691-.1909 1.6315-.4179.2395-.8676.4302-1.3412.5641-.7362.2082-1.3479-.3935-1.3479-1.0584 0-.1567-.1269-.2837-.2836-.2837s-.2837.127-.2837.2837c0 .6649-.6115 1.2666-1.3478 1.0584-.4381-.1238-.8558-.2963-1.2468-.5111-.5958-.3273-.6084-1.0983-.1724-1.5086.1309-.1232.134-.3302.0069-.4573-.1244-.1245-.3261-.1245-.4505 0-.4439.4438-1.2442.4431-1.617-.1671-.2797-.4578-.4997-.9564-.6491-1.4848-.2081-.7362.3935-1.3478 1.0585-1.3478.1566 0 .2836-.127.2836-.2836 0-.1567-.127-.2837-.2836-.2837-.665 0-1.2666-.6116-1.0585-1.3478.1339-.4737.3246-.9234.5642-1.3413.3624-.6323 1.1806-.6418 1.6315-.1908.1108.1108.2904.1108.4011 0 .1108-.1108.1108-.2904 0-.4012-.4509-.4509-.4414-1.269.1909-1.6315.4179-.2395.8676-.4302 1.3412-.5641zm.2919.9606c-.0027-.0006-.0084-.0016-.0198.0017-.3939.1113-.768.2699-1.116.4694l-.0024.0014-.0004.0021-.0003.0023c-.001.0113.0027.0317.022.051.5013.5013.5013 1.3141 0 1.8154s-1.314.5013-1.8153 0c-.0193-.0193-.0397-.0231-.0511-.022-.002.0001-.0043.0007-.0043.0007l-.0015.0023c-.1994.348-.358.7222-.4694 1.116-.0032.0115-.0023.0171-.0016.0199.0008.0038.0034.0107.0105.0193.0151.0181.0449.0366.0873.0366.7089 0 1.2836.5747 1.2836 1.2837 0 .7089-.5747 1.2836-1.2836 1.2836-.0424 0-.0722.0185-.0873.0366-.0071.0086-.0097.0155-.0105.0193-.0007.0028-.0016.0084.0016.0199.1242.4393.3072.8542.5402 1.2355l.0015.0023s.0025.0007.0048.0008c.0113.0009.0313-.003.0501-.0219.515-.5149 1.3499-.5149 1.8648 0 .5088.5088.5133 1.3269.023 1.8413.3014.1582.6208.2864.9543.3807.0115.0032.0171.0022.0198.0016.0038-.0009.0107-.0034.0193-.0106.0181-.015.0366-.0449.0366-.0872 0-.709.5748-1.2837 1.2837-1.2837s1.2836.5747 1.2836 1.2837c0 .0423.0185.0722.0367.0872.0086.0072.0155.0097.0193.0106.0027.0006.0083.0016.0198-.0017.3939-.1113.768-.2699 1.116-.4694l.0023-.0014.0003-.001.0005-.0034c.001-.0113-.0027-.0317-.0221-.051-.5013-.5013-.5013-1.3141 0-1.8154s1.3141-.5013 1.8154 0c.0193.0194.0397.0231.051.0221.0021-.0002.0044-.0008.0044-.0008l.0015-.0023c.1994-.348.358-.7221.4694-1.116.0032-.0115.0022-.0171.0016-.0199-.0009-.0038-.0034-.0107-.0105-.0193-.0151-.0181-.0449-.0366-.0873-.0366-.7089 0-1.2837-.5747-1.2837-1.2836 0-.709.5748-1.2837 1.2837-1.2837.0424 0 .0722-.0185.0873-.0366.0071-.0086.0096-.0155.0105-.0193.0006-.0028.0016-.0084-.0016-.0199-.1114-.3938-.27-.768-.4694-1.116l-.0015-.0023-.0011-.0003-.0033-.0004c-.0113-.0011-.0317.0027-.051.022-.5013.5013-1.3141.5013-1.8154 0s-.5013-1.3141 0-1.8154c.0194-.0193.0231-.0397.0221-.051-.0002-.0021-.0008-.0044-.0008-.0044l-.0023-.0014c-.348-.1995-.7221-.3581-1.116-.4694-.0115-.0033-.0171-.0023-.0198-.0017-.0038.0009-.0107.0034-.0193.0106-.0182.015-.0367.0449-.0367.0873 0 .7089-.5747 1.2836-1.2836 1.2836s-1.2837-.5747-1.2837-1.2836c0-.0424-.0185-.0723-.0366-.0873-.0086-.0072-.0155-.0097-.0193-.0106z" fill-rule="evenodd"/></g></svg>